<?xml version="1.0" encoding="UTF-8" standalone="no"?>
<!DOCTYPE svg PUBLIC "-//W3C//DTD SVG 1.1//EN"
 "http://www.w3.org/Graphics/SVG/1.1/DTD/svg11.dtd">
<!-- Generated by graphviz version 2.44.0 (0)
 -->
<!-- Pages: 1 -->
<svg width="2779pt" height="548pt"
 viewBox="0.00 0.00 2778.75 548.00" xmlns="http://www.w3.org/2000/svg" xmlns:xlink="http://www.w3.org/1999/xlink">
<g id="graph0" class="graph" transform="scale(1 1) rotate(0) translate(4 544)">
<polygon fill="white" stroke="transparent" points="-4,4 -4,-544 2774.75,-544 2774.75,4 -4,4"/>
<!-- [root] aws_eip.nat_gateway_0 -->
<g id="node1" class="node">
<title>[root] aws_eip.nat_gateway_0</title>
<polygon fill="none" stroke="black" points="1026,-252 843,-252 843,-216 1026,-216 1026,-252"/>
<text text-anchor="middle" x="934.5" y="-230.3" font-family="Times,serif" font-size="14.00">aws_eip.nat_gateway_0</text>
</g>
<!-- [root] aws_internet_gateway.example -->
<g id="node3" class="node">
<title>[root] aws_internet_gateway.example</title>
<polygon fill="none" stroke="black" points="1153.5,-180 915.5,-180 915.5,-144 1153.5,-144 1153.5,-180"/>
<text text-anchor="middle" x="1034.5" y="-158.3" font-family="Times,serif" font-size="14.00">aws_internet_gateway.example</text>
</g>
<!-- [root] aws_eip.nat_gateway_0&#45;&gt;[root] aws_internet_gateway.example -->
<g id="edge1" class="edge">
<title>[root] aws_eip.nat_gateway_0&#45;&gt;[root] aws_internet_gateway.example</title>
<path fill="none" stroke="black" d="M958.96,-215.88C971.8,-206.89 987.7,-195.76 1001.59,-186.03"/>
<polygon fill="black" stroke="black" points="1003.76,-188.79 1009.94,-180.19 999.74,-183.06 1003.76,-188.79"/>
</g>
<!-- [root] aws_eip.nat_gateway_1 -->
<g id="node2" class="node">
<title>[root] aws_eip.nat_gateway_1</title>
<polygon fill="none" stroke="black" points="1227,-252 1044,-252 1044,-216 1227,-216 1227,-252"/>
<text text-anchor="middle" x="1135.5" y="-230.3" font-family="Times,serif" font-size="14.00">aws_eip.nat_gateway_1</text>
</g>
<!-- [root] aws_eip.nat_gateway_1&#45;&gt;[root] aws_internet_gateway.example -->
<g id="edge2" class="edge">
<title>[root] aws_eip.nat_gateway_1&#45;&gt;[root] aws_internet_gateway.example</title>
<path fill="none" stroke="black" d="M1110.79,-215.88C1097.83,-206.89 1081.77,-195.76 1067.73,-186.03"/>
<polygon fill="black" stroke="black" points="1069.52,-183.01 1059.3,-180.19 1065.53,-188.76 1069.52,-183.01"/>
</g>
<!-- [root] aws_vpc.example -->
<g id="node20" class="node">
<title>[root] aws_vpc.example</title>
<polygon fill="none" stroke="black" points="1686.5,-108 1546.5,-108 1546.5,-72 1686.5,-72 1686.5,-108"/>
<text text-anchor="middle" x="1616.5" y="-86.3" font-family="Times,serif" font-size="14.00">aws_vpc.example</text>
</g>
<!-- [root] aws_internet_gateway.example&#45;&gt;[root] aws_vpc.example -->
<g id="edge3" class="edge">
<title>[root] aws_internet_gateway.example&#45;&gt;[root] aws_vpc.example</title>
<path fill="none" stroke="black" d="M1153.68,-146.67C1267.98,-132.92 1437.38,-112.54 1536.4,-100.63"/>
<polygon fill="black" stroke="black" points="1536.84,-104.11 1546.35,-99.44 1536,-97.16 1536.84,-104.11"/>
</g>
<!-- [root] aws_nat_gateway.nat_gateway_0 -->
<g id="node4" class="node">
<title>[root] aws_nat_gateway.nat_gateway_0</title>
<polygon fill="none" stroke="black" points="1005,-396 756,-396 756,-360 1005,-360 1005,-396"/>
<text text-anchor="middle" x="880.5" y="-374.3" font-family="Times,serif" font-size="14.00">aws_nat_gateway.nat_gateway_0</text>
</g>
<!-- [root] aws_nat_gateway.nat_gateway_0&#45;&gt;[root] aws_eip.nat_gateway_0 -->
<g id="edge4" class="edge">
<title>[root] aws_nat_gateway.nat_gateway_0&#45;&gt;[root] aws_eip.nat_gateway_0</title>
<path fill="none" stroke="black" d="M894.25,-359.79C901.57,-349.85 910.13,-336.81 915.5,-324 923.78,-304.24 928.62,-280.44 931.34,-262.42"/>
<polygon fill="black" stroke="black" points="934.84,-262.68 932.74,-252.3 927.91,-261.73 934.84,-262.68"/>
</g>
<!-- [root] aws_subnet.public_0 -->
<g id="node18" class="node">
<title>[root] aws_subnet.public_0</title>
<polygon fill="none" stroke="black" points="906.5,-324 742.5,-324 742.5,-288 906.5,-288 906.5,-324"/>
<text text-anchor="middle" x="824.5" y="-302.3" font-family="Times,serif" font-size="14.00">aws_subnet.public_0</text>
</g>
<!-- [root] aws_nat_gateway.nat_gateway_0&#45;&gt;[root] aws_subnet.public_0 -->
<g id="edge5" class="edge">
<title>[root] aws_nat_gateway.nat_gateway_0&#45;&gt;[root] aws_subnet.public_0</title>
<path fill="none" stroke="black" d="M866.66,-359.7C860.01,-351.39 851.92,-341.28 844.61,-332.14"/>
<polygon fill="black" stroke="black" points="847.16,-329.73 838.18,-324.1 841.7,-334.1 847.16,-329.73"/>
</g>
<!-- [root] aws_nat_gateway.nat_gateway_1 -->
<g id="node5" class="node">
<title>[root] aws_nat_gateway.nat_gateway_1</title>
<polygon fill="none" stroke="black" points="1260,-324 1011,-324 1011,-288 1260,-288 1260,-324"/>
<text text-anchor="middle" x="1135.5" y="-302.3" font-family="Times,serif" font-size="14.00">aws_nat_gateway.nat_gateway_1</text>
</g>
<!-- [root] aws_nat_gateway.nat_gateway_1&#45;&gt;[root] aws_eip.nat_gateway_1 -->
<g id="edge6" class="edge">
<title>[root] aws_nat_gateway.nat_gateway_1&#45;&gt;[root] aws_eip.nat_gateway_1</title>
<path fill="none" stroke="black" d="M1135.5,-287.7C1135.5,-279.98 1135.5,-270.71 1135.5,-262.11"/>
<polygon fill="black" stroke="black" points="1139,-262.1 1135.5,-252.1 1132,-262.1 1139,-262.1"/>
</g>
<!-- [root] aws_subnet.public_1 -->
<g id="node19" class="node">
<title>[root] aws_subnet.public_1</title>
<polygon fill="none" stroke="black" points="1439.5,-252 1275.5,-252 1275.5,-216 1439.5,-216 1439.5,-252"/>
<text text-anchor="middle" x="1357.5" y="-230.3" font-family="Times,serif" font-size="14.00">aws_subnet.public_1</text>
</g>
<!-- [root] aws_nat_gateway.nat_gateway_1&#45;&gt;[root] aws_subnet.public_1 -->
<g id="edge7" class="edge">
<title>[root] aws_nat_gateway.nat_gateway_1&#45;&gt;[root] aws_subnet.public_1</title>
<path fill="none" stroke="black" d="M1189.52,-287.97C1220.95,-278.06 1260.73,-265.51 1293.69,-255.12"/>
<polygon fill="black" stroke="black" points="1294.75,-258.46 1303.23,-252.11 1292.64,-251.78 1294.75,-258.46"/>
</g>
<!-- [root] aws_route.private_0 -->
<g id="node6" class="node">
<title>[root] aws_route.private_0</title>
<polygon fill="none" stroke="black" points="1600,-396 1439,-396 1439,-360 1600,-360 1600,-396"/>
<text text-anchor="middle" x="1519.5" y="-374.3" font-family="Times,serif" font-size="14.00">aws_route.private_0</text>
</g>
<!-- [root] aws_route.private_0&#45;&gt;[root] aws_nat_gateway.nat_gateway_1 -->
<g id="edge8" class="edge">
<title>[root] aws_route.private_0&#45;&gt;[root] aws_nat_gateway.nat_gateway_1</title>
<path fill="none" stroke="black" d="M1438.55,-361.68C1435.5,-361.11 1432.47,-360.55 1429.5,-360 1367.07,-348.48 1297.13,-335.86 1241.13,-325.82"/>
<polygon fill="black" stroke="black" points="1241.66,-322.36 1231.2,-324.04 1240.43,-329.25 1241.66,-322.36"/>
</g>
<!-- [root] aws_route_table.private_0 -->
<g id="node9" class="node">
<title>[root] aws_route_table.private_0</title>
<polygon fill="none" stroke="black" points="1939,-324 1736,-324 1736,-288 1939,-288 1939,-324"/>
<text text-anchor="middle" x="1837.5" y="-302.3" font-family="Times,serif" font-size="14.00">aws_route_table.private_0</text>
</g>
<!-- [root] aws_route.private_0&#45;&gt;[root] aws_route_table.private_0 -->
<g id="edge9" class="edge">
<title>[root] aws_route.private_0&#45;&gt;[root] aws_route_table.private_0</title>
<path fill="none" stroke="black" d="M1596.88,-359.97C1643.14,-349.78 1702.04,-336.82 1749.99,-326.26"/>
<polygon fill="black" stroke="black" points="1751.03,-329.62 1760.04,-324.05 1749.53,-322.78 1751.03,-329.62"/>
</g>
<!-- [root] aws_route.private_1 -->
<g id="node7" class="node">
<title>[root] aws_route.private_1</title>
<polygon fill="none" stroke="black" points="1421,-396 1260,-396 1260,-360 1421,-360 1421,-396"/>
<text text-anchor="middle" x="1340.5" y="-374.3" font-family="Times,serif" font-size="14.00">aws_route.private_1</text>
</g>
<!-- [root] aws_route.private_1&#45;&gt;[root] aws_nat_gateway.nat_gateway_1 -->
<g id="edge10" class="edge">
<title>[root] aws_route.private_1&#45;&gt;[root] aws_nat_gateway.nat_gateway_1</title>
<path fill="none" stroke="black" d="M1290.61,-359.97C1261.85,-350.14 1225.49,-337.73 1195.21,-327.39"/>
<polygon fill="black" stroke="black" points="1196.2,-324.03 1185.61,-324.11 1193.94,-330.65 1196.2,-324.03"/>
</g>
<!-- [root] aws_route_table.private_1 -->
<g id="node10" class="node">
<title>[root] aws_route_table.private_1</title>
<polygon fill="none" stroke="black" points="1718,-324 1515,-324 1515,-288 1718,-288 1718,-324"/>
<text text-anchor="middle" x="1616.5" y="-302.3" font-family="Times,serif" font-size="14.00">aws_route_table.private_1</text>
</g>
<!-- [root] aws_route.private_1&#45;&gt;[root] aws_route_table.private_1 -->
<g id="edge11" class="edge">
<title>[root] aws_route.private_1&#45;&gt;[root] aws_route_table.private_1</title>
<path fill="none" stroke="black" d="M1407.66,-359.97C1447.4,-349.89 1497.89,-337.08 1539.27,-326.59"/>
<polygon fill="black" stroke="black" points="1540.2,-329.96 1549.03,-324.11 1538.48,-323.18 1540.2,-329.96"/>
</g>
<!-- [root] aws_route.public -->
<g id="node8" class="node">
<title>[root] aws_route.public</title>
<polygon fill="none" stroke="black" points="137,-396 0,-396 0,-360 137,-360 137,-396"/>
<text text-anchor="middle" x="68.5" y="-374.3" font-family="Times,serif" font-size="14.00">aws_route.public</text>
</g>
<!-- [root] aws_route.public&#45;&gt;[root] aws_internet_gateway.example -->
<g id="edge12" class="edge">
<title>[root] aws_route.public&#45;&gt;[root] aws_internet_gateway.example</title>
<path fill="none" stroke="black" d="M137.2,-361.78C309.12,-323.69 757.74,-224.31 947.61,-182.25"/>
<polygon fill="black" stroke="black" points="948.54,-185.63 957.55,-180.05 947.03,-178.79 948.54,-185.63"/>
</g>
<!-- [root] aws_route_table.public -->
<g id="node11" class="node">
<title>[root] aws_route_table.public</title>
<polygon fill="none" stroke="black" points="686.5,-324 506.5,-324 506.5,-288 686.5,-288 686.5,-324"/>
<text text-anchor="middle" x="596.5" y="-302.3" font-family="Times,serif" font-size="14.00">aws_route_table.public</text>
</g>
<!-- [root] aws_route.public&#45;&gt;[root] aws_route_table.public -->
<g id="edge13" class="edge">
<title>[root] aws_route.public&#45;&gt;[root] aws_route_table.public</title>
<path fill="none" stroke="black" d="M137.32,-361.57C140.42,-361.01 143.49,-360.48 146.5,-360 299.15,-335.5 339.25,-344.48 492.5,-324 493.78,-323.83 495.06,-323.66 496.35,-323.48"/>
<polygon fill="black" stroke="black" points="496.94,-326.93 506.36,-322.07 495.96,-320 496.94,-326.93"/>
</g>
<!-- [root] aws_route_table.private_0&#45;&gt;[root] aws_vpc.example -->
<g id="edge14" class="edge">
<title>[root] aws_route_table.private_0&#45;&gt;[root] aws_vpc.example</title>
<path fill="none" stroke="black" d="M1819.79,-287.85C1780.67,-249.97 1686.8,-159.08 1641.63,-115.33"/>
<polygon fill="black" stroke="black" points="1643.91,-112.67 1634.3,-108.23 1639.05,-117.7 1643.91,-112.67"/>
</g>
<!-- [root] aws_route_table.private_1&#45;&gt;[root] aws_vpc.example -->
<g id="edge15" class="edge">
<title>[root] aws_route_table.private_1&#45;&gt;[root] aws_vpc.example</title>
<path fill="none" stroke="black" d="M1616.5,-287.85C1616.5,-250.83 1616.5,-163.18 1616.5,-118.39"/>
<polygon fill="black" stroke="black" points="1620,-118.23 1616.5,-108.23 1613,-118.23 1620,-118.23"/>
</g>
<!-- [root] aws_route_table.public&#45;&gt;[root] aws_vpc.example -->
<g id="edge16" class="edge">
<title>[root] aws_route_table.public&#45;&gt;[root] aws_vpc.example</title>
<path fill="none" stroke="black" d="M615.88,-287.87C656.31,-253.33 753.97,-175.91 851.5,-144 976.89,-102.98 1366.68,-93.71 1536.3,-91.61"/>
<polygon fill="black" stroke="black" points="1536.45,-95.11 1546.41,-91.49 1536.37,-88.11 1536.45,-95.11"/>
</g>
<!-- [root] aws_route_table_association.private_0 -->
<g id="node12" class="node">
<title>[root] aws_route_table_association.private_0</title>
<polygon fill="none" stroke="black" points="2254.5,-396 1964.5,-396 1964.5,-360 2254.5,-360 2254.5,-396"/>
<text text-anchor="middle" x="2109.5" y="-374.3" font-family="Times,serif" font-size="14.00">aws_route_table_association.private_0</text>
</g>
<!-- [root] aws_route_table_association.private_0&#45;&gt;[root] aws_route_table.private_0 -->
<g id="edge17" class="edge">
<title>[root] aws_route_table_association.private_0&#45;&gt;[root] aws_route_table.private_0</title>
<path fill="none" stroke="black" d="M2043.31,-359.97C2004.23,-349.91 1954.6,-337.14 1913.87,-326.65"/>
<polygon fill="black" stroke="black" points="1914.54,-323.21 1903.99,-324.11 1912.8,-329.99 1914.54,-323.21"/>
</g>
<!-- [root] aws_subnet.private_0 -->
<g id="node16" class="node">
<title>[root] aws_subnet.private_0</title>
<polygon fill="none" stroke="black" points="2317,-324 2146,-324 2146,-288 2317,-288 2317,-324"/>
<text text-anchor="middle" x="2231.5" y="-302.3" font-family="Times,serif" font-size="14.00">aws_subnet.private_0</text>
</g>
<!-- [root] aws_route_table_association.private_0&#45;&gt;[root] aws_subnet.private_0 -->
<g id="edge18" class="edge">
<title>[root] aws_route_table_association.private_0&#45;&gt;[root] aws_subnet.private_0</title>
<path fill="none" stroke="black" d="M2139.34,-359.88C2155.44,-350.64 2175.5,-339.13 2192.79,-329.21"/>
<polygon fill="black" stroke="black" points="2194.61,-332.2 2201.54,-324.19 2191.13,-326.13 2194.61,-332.2"/>
</g>
<!-- [root] aws_route_table_association.private_1 -->
<g id="node13" class="node">
<title>[root] aws_route_table_association.private_1</title>
<polygon fill="none" stroke="black" points="1946.5,-396 1656.5,-396 1656.5,-360 1946.5,-360 1946.5,-396"/>
<text text-anchor="middle" x="1801.5" y="-374.3" font-family="Times,serif" font-size="14.00">aws_route_table_association.private_1</text>
</g>
<!-- [root] aws_route_table_association.private_1&#45;&gt;[root] aws_route_table.private_1 -->
<g id="edge19" class="edge">
<title>[root] aws_route_table_association.private_1&#45;&gt;[root] aws_route_table.private_1</title>
<path fill="none" stroke="black" d="M1756.24,-359.88C1730.5,-350.14 1698.09,-337.87 1670.96,-327.61"/>
<polygon fill="black" stroke="black" points="1672.2,-324.33 1661.61,-324.07 1669.72,-330.88 1672.2,-324.33"/>
</g>
<!-- [root] aws_subnet.private_1 -->
<g id="node17" class="node">
<title>[root] aws_subnet.private_1</title>
<polygon fill="none" stroke="black" points="2128,-324 1957,-324 1957,-288 2128,-288 2128,-324"/>
<text text-anchor="middle" x="2042.5" y="-302.3" font-family="Times,serif" font-size="14.00">aws_subnet.private_1</text>
</g>
<!-- [root] aws_route_table_association.private_1&#45;&gt;[root] aws_subnet.private_1 -->
<g id="edge20" class="edge">
<title>[root] aws_route_table_association.private_1&#45;&gt;[root] aws_subnet.private_1</title>
<path fill="none" stroke="black" d="M1860.15,-359.97C1894.41,-350.01 1937.82,-337.41 1973.69,-326.99"/>
<polygon fill="black" stroke="black" points="1974.96,-330.26 1983.59,-324.11 1973.01,-323.54 1974.96,-330.26"/>
</g>
<!-- [root] aws_route_table_association.public_0 -->
<g id="node14" class="node">
<title>[root] aws_route_table_association.public_0</title>
<polygon fill="none" stroke="black" points="737.5,-396 455.5,-396 455.5,-360 737.5,-360 737.5,-396"/>
<text text-anchor="middle" x="596.5" y="-374.3" font-family="Times,serif" font-size="14.00">aws_route_table_association.public_0</text>
</g>
<!-- [root] aws_route_table_association.public_0&#45;&gt;[root] aws_route_table.public -->
<g id="edge21" class="edge">
<title>[root] aws_route_table_association.public_0&#45;&gt;[root] aws_route_table.public</title>
<path fill="none" stroke="black" d="M596.5,-359.7C596.5,-351.98 596.5,-342.71 596.5,-334.11"/>
<polygon fill="black" stroke="black" points="600,-334.1 596.5,-324.1 593,-334.1 600,-334.1"/>
</g>
<!-- [root] aws_route_table_association.public_0&#45;&gt;[root] aws_subnet.public_0 -->
<g id="edge22" class="edge">
<title>[root] aws_route_table_association.public_0&#45;&gt;[root] aws_subnet.public_0</title>
<path fill="none" stroke="black" d="M651.98,-359.97C684.26,-350.06 725.11,-337.51 758.96,-327.12"/>
<polygon fill="black" stroke="black" points="760.24,-330.39 768.77,-324.11 758.18,-323.7 760.24,-330.39"/>
</g>
<!-- [root] aws_route_table_association.public_1 -->
<g id="node15" class="node">
<title>[root] aws_route_table_association.public_1</title>
<polygon fill="none" stroke="black" points="437.5,-396 155.5,-396 155.5,-360 437.5,-360 437.5,-396"/>
<text text-anchor="middle" x="296.5" y="-374.3" font-family="Times,serif" font-size="14.00">aws_route_table_association.public_1</text>
</g>
<!-- [root] aws_route_table_association.public_1&#45;&gt;[root] aws_route_table.public -->
<g id="edge23" class="edge">
<title>[root] aws_route_table_association.public_1&#45;&gt;[root] aws_route_table.public</title>
<path fill="none" stroke="black" d="M369.5,-359.97C413.05,-349.8 468.48,-336.87 513.66,-326.33"/>
<polygon fill="black" stroke="black" points="514.49,-329.73 523.43,-324.05 512.89,-322.91 514.49,-329.73"/>
</g>
<!-- [root] aws_route_table_association.public_1&#45;&gt;[root] aws_subnet.public_1 -->
<g id="edge24" class="edge">
<title>[root] aws_route_table_association.public_1&#45;&gt;[root] aws_subnet.public_1</title>
<path fill="none" stroke="black" d="M437.62,-360.33C547.59,-347.01 683.63,-329.67 695.5,-324 716.5,-313.98 712.21,-297.38 733.5,-288 835.85,-242.91 1124.27,-263.72 1235.5,-252 1245.15,-250.98 1255.21,-249.79 1265.24,-248.52"/>
<polygon fill="black" stroke="black" points="1265.76,-251.98 1275.23,-247.23 1264.87,-245.04 1265.76,-251.98"/>
</g>
<!-- [root] aws_subnet.private_0&#45;&gt;[root] aws_vpc.example -->
<g id="edge25" class="edge">
<title>[root] aws_subnet.private_0&#45;&gt;[root] aws_vpc.example</title>
<path fill="none" stroke="black" d="M2183.76,-288C2100.56,-258.42 1923.51,-195.68 1773.5,-144 1741.73,-133.05 1706.27,-121.06 1677.1,-111.26"/>
<polygon fill="black" stroke="black" points="1678.06,-107.89 1667.46,-108.03 1675.83,-114.53 1678.06,-107.89"/>
</g>
<!-- [root] aws_subnet.private_1&#45;&gt;[root] aws_vpc.example -->
<g id="edge26" class="edge">
<title>[root] aws_subnet.private_1&#45;&gt;[root] aws_vpc.example</title>
<path fill="none" stroke="black" d="M2008.36,-287.85C1931.38,-249.18 1744.41,-155.26 1659.6,-112.65"/>
<polygon fill="black" stroke="black" points="1661.01,-109.45 1650.51,-108.08 1657.87,-115.7 1661.01,-109.45"/>
</g>
<!-- [root] aws_subnet.public_0&#45;&gt;[root] aws_vpc.example -->
<g id="edge27" class="edge">
<title>[root] aws_subnet.public_0&#45;&gt;[root] aws_vpc.example</title>
<path fill="none" stroke="black" d="M822.89,-287.68C821.9,-269.04 822.5,-238.97 833.5,-216 853.18,-174.9 865.01,-162.85 906.5,-144 1016.82,-93.87 1374.64,-89.44 1536.12,-90.11"/>
<polygon fill="black" stroke="black" points="1536.46,-93.61 1546.47,-90.16 1536.49,-86.61 1536.46,-93.61"/>
</g>
<!-- [root] aws_subnet.public_1&#45;&gt;[root] aws_vpc.example -->
<g id="edge28" class="edge">
<title>[root] aws_subnet.public_1&#45;&gt;[root] aws_vpc.example</title>
<path fill="none" stroke="black" d="M1388.74,-215.87C1435.7,-190.12 1524.49,-141.45 1576.24,-113.07"/>
<polygon fill="black" stroke="black" points="1578.06,-116.07 1585.15,-108.19 1574.7,-109.93 1578.06,-116.07"/>
</g>
<!-- [root] local.tag_name -->
<g id="node21" class="node">
<title>[root] local.tag_name</title>
<polygon fill="none" stroke="black" points="1583,-36 1466,-36 1466,0 1589,0 1589,-30 1583,-36"/>
<polyline fill="none" stroke="black" points="1583,-36 1583,-30 "/>
<polyline fill="none" stroke="black" points="1589,-30 1583,-30 "/>
<text text-anchor="middle" x="1527.5" y="-14.3" font-family="Times,serif" font-size="14.00">local.tag_name</text>
</g>
<!-- [root] aws_vpc.example&#45;&gt;[root] local.tag_name -->
<g id="edge29" class="edge">
<title>[root] aws_vpc.example&#45;&gt;[root] local.tag_name</title>
<path fill="none" stroke="black" d="M1594.5,-71.7C1583.29,-62.88 1569.5,-52.03 1557.35,-42.47"/>
<polygon fill="black" stroke="black" points="1559.27,-39.54 1549.25,-36.1 1554.94,-45.04 1559.27,-39.54"/>
</g>
<!-- [root] provider.aws -->
<g id="node27" class="node">
<title>[root] provider.aws</title>
<polygon fill="none" stroke="black" points="1706.5,-36 1607.46,-18 1706.5,0 1805.54,-18 1706.5,-36"/>
<text text-anchor="middle" x="1706.5" y="-14.3" font-family="Times,serif" font-size="14.00">provider.aws</text>
</g>
<!-- [root] aws_vpc.example&#45;&gt;[root] provider.aws -->
<g id="edge30" class="edge">
<title>[root] aws_vpc.example&#45;&gt;[root] provider.aws</title>
<path fill="none" stroke="black" d="M1638.75,-71.7C1651.39,-61.87 1667.28,-49.51 1680.49,-39.23"/>
<polygon fill="black" stroke="black" points="1682.98,-41.73 1688.73,-32.82 1678.68,-36.2 1682.98,-41.73"/>
</g>
<!-- [root] output.aws_subnet_private_0 -->
<g id="node22" class="node">
<title>[root] output.aws_subnet_private_0</title>
<polygon fill="none" stroke="black" points="2735,-396 2516,-396 2516,-360 2741,-360 2741,-390 2735,-396"/>
<polyline fill="none" stroke="black" points="2735,-396 2735,-390 "/>
<polyline fill="none" stroke="black" points="2741,-390 2735,-390 "/>
<text text-anchor="middle" x="2628.5" y="-374.3" font-family="Times,serif" font-size="14.00">output.aws_subnet_private_0</text>
</g>
<!-- [root] output.aws_subnet_private_0&#45;&gt;[root] aws_subnet.private_0 -->
<g id="edge44" class="edge">
<title>[root] output.aws_subnet_private_0&#45;&gt;[root] aws_subnet.private_0</title>
<path fill="none" stroke="black" d="M2531.89,-359.97C2469.71,-349 2389.23,-334.81 2327.22,-323.88"/>
<polygon fill="black" stroke="black" points="2327.5,-320.37 2317.05,-322.08 2326.29,-327.27 2327.5,-320.37"/>
</g>
<!-- [root] output.aws_subnet_private_1 -->
<g id="node23" class="node">
<title>[root] output.aws_subnet_private_1</title>
<polygon fill="none" stroke="black" points="2492,-396 2273,-396 2273,-360 2498,-360 2498,-390 2492,-396"/>
<polyline fill="none" stroke="black" points="2492,-396 2492,-390 "/>
<polyline fill="none" stroke="black" points="2498,-390 2492,-390 "/>
<text text-anchor="middle" x="2385.5" y="-374.3" font-family="Times,serif" font-size="14.00">output.aws_subnet_private_1</text>
</g>
<!-- [root] output.aws_subnet_private_1&#45;&gt;[root] aws_subnet.private_1 -->
<g id="edge45" class="edge">
<title>[root] output.aws_subnet_private_1&#45;&gt;[root] aws_subnet.private_1</title>
<path fill="none" stroke="black" d="M2302.03,-359.97C2251.83,-349.72 2187.81,-336.66 2135.92,-326.07"/>
<polygon fill="black" stroke="black" points="2136.54,-322.62 2126.05,-324.05 2135.14,-329.48 2136.54,-322.62"/>
</g>
<!-- [root] output.aws_subnet_public_0 -->
<g id="node24" class="node">
<title>[root] output.aws_subnet_public_0</title>
<polygon fill="none" stroke="black" points="1235.5,-396 1023.5,-396 1023.5,-360 1241.5,-360 1241.5,-390 1235.5,-396"/>
<polyline fill="none" stroke="black" points="1235.5,-396 1235.5,-390 "/>
<polyline fill="none" stroke="black" points="1241.5,-390 1235.5,-390 "/>
<text text-anchor="middle" x="1132.5" y="-374.3" font-family="Times,serif" font-size="14.00">output.aws_subnet_public_0</text>
</g>
<!-- [root] output.aws_subnet_public_0&#45;&gt;[root] aws_subnet.public_0 -->
<g id="edge46" class="edge">
<title>[root] output.aws_subnet_public_0&#45;&gt;[root] aws_subnet.public_0</title>
<path fill="none" stroke="black" d="M1057.55,-359.97C1012.84,-349.8 955.94,-336.87 909.55,-326.33"/>
<polygon fill="black" stroke="black" points="910.05,-322.85 899.52,-324.05 908.5,-329.68 910.05,-322.85"/>
</g>
<!-- [root] output.aws_subnet_public_1 -->
<g id="node25" class="node">
<title>[root] output.aws_subnet_public_1</title>
<polygon fill="none" stroke="black" points="1490.5,-324 1278.5,-324 1278.5,-288 1496.5,-288 1496.5,-318 1490.5,-324"/>
<polyline fill="none" stroke="black" points="1490.5,-324 1490.5,-318 "/>
<polyline fill="none" stroke="black" points="1496.5,-318 1490.5,-318 "/>
<text text-anchor="middle" x="1387.5" y="-302.3" font-family="Times,serif" font-size="14.00">output.aws_subnet_public_1</text>
</g>
<!-- [root] output.aws_subnet_public_1&#45;&gt;[root] aws_subnet.public_1 -->
<g id="edge47" class="edge">
<title>[root] output.aws_subnet_public_1&#45;&gt;[root] aws_subnet.public_1</title>
<path fill="none" stroke="black" d="M1380.08,-287.7C1376.71,-279.81 1372.63,-270.3 1368.88,-261.55"/>
<polygon fill="black" stroke="black" points="1371.99,-259.92 1364.83,-252.1 1365.55,-262.67 1371.99,-259.92"/>
</g>
<!-- [root] output.aws_vpc -->
<g id="node26" class="node">
<title>[root] output.aws_vpc</title>
<polygon fill="none" stroke="black" points="2534.5,-180 2412.5,-180 2412.5,-144 2540.5,-144 2540.5,-174 2534.5,-180"/>
<polyline fill="none" stroke="black" points="2534.5,-180 2534.5,-174 "/>
<polyline fill="none" stroke="black" points="2540.5,-174 2534.5,-174 "/>
<text text-anchor="middle" x="2476.5" y="-158.3" font-family="Times,serif" font-size="14.00">output.aws_vpc</text>
</g>
<!-- [root] output.aws_vpc&#45;&gt;[root] aws_vpc.example -->
<g id="edge48" class="edge">
<title>[root] output.aws_vpc&#45;&gt;[root] aws_vpc.example</title>
<path fill="none" stroke="black" d="M2412.21,-155.77C2257.83,-143.2 1866.41,-111.34 1696.86,-97.54"/>
<polygon fill="black" stroke="black" points="1697,-94.04 1686.75,-96.72 1696.43,-101.02 1697,-94.04"/>
</g>
<!-- [root] meta.count&#45;boundary (EachMode fixup) -->
<g id="node28" class="node">
<title>[root] meta.count&#45;boundary (EachMode fixup)</title>
<ellipse fill="none" stroke="black" cx="1519.5" cy="-450" rx="223.66" ry="18"/>
<text text-anchor="middle" x="1519.5" y="-446.3" font-family="Times,serif" font-size="14.00">[root] meta.count&#45;boundary (EachMode fixup)</text>
</g>
<!-- [root] meta.count&#45;boundary (EachMode fixup)&#45;&gt;[root] aws_nat_gateway.nat_gateway_0 -->
<g id="edge31" class="edge">
<title>[root] meta.count&#45;boundary (EachMode fixup)&#45;&gt;[root] aws_nat_gateway.nat_gateway_0</title>
<path fill="none" stroke="black" d="M1384.38,-435.62C1285.21,-425.61 1146.95,-411.26 1015.57,-396.11"/>
<polygon fill="black" stroke="black" points="1015.65,-392.6 1005.31,-394.92 1014.84,-399.55 1015.65,-392.6"/>
</g>
<!-- [root] meta.count&#45;boundary (EachMode fixup)&#45;&gt;[root] aws_route.private_0 -->
<g id="edge32" class="edge">
<title>[root] meta.count&#45;boundary (EachMode fixup)&#45;&gt;[root] aws_route.private_0</title>
<path fill="none" stroke="black" d="M1519.5,-431.7C1519.5,-423.98 1519.5,-414.71 1519.5,-406.11"/>
<polygon fill="black" stroke="black" points="1523,-406.1 1519.5,-396.1 1516,-406.1 1523,-406.1"/>
</g>
<!-- [root] meta.count&#45;boundary (EachMode fixup)&#45;&gt;[root] aws_route.private_1 -->
<g id="edge33" class="edge">
<title>[root] meta.count&#45;boundary (EachMode fixup)&#45;&gt;[root] aws_route.private_1</title>
<path fill="none" stroke="black" d="M1476.63,-432.23C1451.75,-422.51 1420.22,-410.17 1393.76,-399.83"/>
<polygon fill="black" stroke="black" points="1394.86,-396.5 1384.27,-396.12 1392.31,-403.02 1394.86,-396.5"/>
</g>
<!-- [root] meta.count&#45;boundary (EachMode fixup)&#45;&gt;[root] aws_route.public -->
<g id="edge34" class="edge">
<title>[root] meta.count&#45;boundary (EachMode fixup)&#45;&gt;[root] aws_route.public</title>
<path fill="none" stroke="black" d="M1366.02,-436.9C1339.52,-435.07 1312.22,-433.34 1286.5,-432 783.61,-405.72 651.32,-457.54 147.37,-395.95"/>
<polygon fill="black" stroke="black" points="147.64,-392.45 137.29,-394.71 146.78,-399.4 147.64,-392.45"/>
</g>
<!-- [root] meta.count&#45;boundary (EachMode fixup)&#45;&gt;[root] aws_route_table_association.private_0 -->
<g id="edge35" class="edge">
<title>[root] meta.count&#45;boundary (EachMode fixup)&#45;&gt;[root] aws_route_table_association.private_0</title>
<path fill="none" stroke="black" d="M1639.25,-434.79C1730.59,-423.96 1857.1,-408.95 1955.89,-397.22"/>
<polygon fill="black" stroke="black" points="1956.45,-400.68 1965.97,-396.03 1955.63,-393.73 1956.45,-400.68"/>
</g>
<!-- [root] meta.count&#45;boundary (EachMode fixup)&#45;&gt;[root] aws_route_table_association.private_1 -->
<g id="edge36" class="edge">
<title>[root] meta.count&#45;boundary (EachMode fixup)&#45;&gt;[root] aws_route_table_association.private_1</title>
<path fill="none" stroke="black" d="M1584.91,-432.76C1626.11,-422.54 1679.55,-409.27 1723.04,-398.48"/>
<polygon fill="black" stroke="black" points="1724.15,-401.81 1733.01,-396 1722.46,-395.01 1724.15,-401.81"/>
</g>
<!-- [root] meta.count&#45;boundary (EachMode fixup)&#45;&gt;[root] aws_route_table_association.public_0 -->
<g id="edge37" class="edge">
<title>[root] meta.count&#45;boundary (EachMode fixup)&#45;&gt;[root] aws_route_table_association.public_0</title>
<path fill="none" stroke="black" d="M1360.96,-437.3C1336.04,-435.5 1310.57,-433.68 1286.5,-432 1049.83,-415.48 987.75,-417.49 747.88,-396.1"/>
<polygon fill="black" stroke="black" points="748.08,-392.61 737.8,-395.2 747.45,-399.58 748.08,-392.61"/>
</g>
<!-- [root] meta.count&#45;boundary (EachMode fixup)&#45;&gt;[root] aws_route_table_association.public_1 -->
<g id="edge38" class="edge">
<title>[root] meta.count&#45;boundary (EachMode fixup)&#45;&gt;[root] aws_route_table_association.public_1</title>
<path fill="none" stroke="black" d="M1364.13,-437.01C1338.22,-435.2 1311.6,-433.45 1286.5,-432 916.73,-410.59 820.73,-424.8 447.78,-396.07"/>
<polygon fill="black" stroke="black" points="448.04,-392.58 437.8,-395.29 447.49,-399.56 448.04,-392.58"/>
</g>
<!-- [root] meta.count&#45;boundary (EachMode fixup)&#45;&gt;[root] output.aws_subnet_private_0 -->
<g id="edge39" class="edge">
<title>[root] meta.count&#45;boundary (EachMode fixup)&#45;&gt;[root] output.aws_subnet_private_0</title>
<path fill="none" stroke="black" d="M1726.15,-443.09C1923.86,-436.22 2230.62,-422.43 2505.64,-396.13"/>
<polygon fill="black" stroke="black" points="2506.21,-399.6 2515.82,-395.15 2505.53,-392.63 2506.21,-399.6"/>
</g>
<!-- [root] meta.count&#45;boundary (EachMode fixup)&#45;&gt;[root] output.aws_subnet_private_1 -->
<g id="edge40" class="edge">
<title>[root] meta.count&#45;boundary (EachMode fixup)&#45;&gt;[root] output.aws_subnet_private_1</title>
<path fill="none" stroke="black" d="M1701.35,-439.47C1849.66,-430.9 2064.81,-416.61 2262.85,-396.02"/>
<polygon fill="black" stroke="black" points="2263.28,-399.5 2272.86,-394.98 2262.55,-392.54 2263.28,-399.5"/>
</g>
<!-- [root] meta.count&#45;boundary (EachMode fixup)&#45;&gt;[root] output.aws_subnet_public_0 -->
<g id="edge41" class="edge">
<title>[root] meta.count&#45;boundary (EachMode fixup)&#45;&gt;[root] output.aws_subnet_public_0</title>
<path fill="none" stroke="black" d="M1433.13,-433.38C1375.1,-422.88 1298.3,-408.99 1236.85,-397.87"/>
<polygon fill="black" stroke="black" points="1237.2,-394.38 1226.73,-396.04 1235.95,-401.27 1237.2,-394.38"/>
</g>
<!-- [root] meta.count&#45;boundary (EachMode fixup)&#45;&gt;[root] output.aws_subnet_public_1 -->
<g id="edge42" class="edge">
<title>[root] meta.count&#45;boundary (EachMode fixup)&#45;&gt;[root] output.aws_subnet_public_1</title>
<path fill="none" stroke="black" d="M1566.59,-432.33C1582.84,-424.06 1599.26,-412.26 1608.5,-396 1616.41,-382.09 1618.41,-372.56 1608.5,-360 1600.67,-350.06 1545.2,-336.78 1491.8,-326"/>
<polygon fill="black" stroke="black" points="1492.36,-322.54 1481.87,-324.01 1490.99,-329.4 1492.36,-322.54"/>
</g>
<!-- [root] meta.count&#45;boundary (EachMode fixup)&#45;&gt;[root] output.aws_vpc -->
<g id="edge43" class="edge">
<title>[root] meta.count&#45;boundary (EachMode fixup)&#45;&gt;[root] output.aws_vpc</title>
<path fill="none" stroke="black" d="M1740.7,-447.3C2085.68,-443.55 2716.2,-431.81 2750.5,-396 2833.12,-309.75 2639.31,-222.31 2536.03,-183.61"/>
<polygon fill="black" stroke="black" points="2537.22,-180.32 2526.63,-180.13 2534.79,-186.88 2537.22,-180.32"/>
</g>
<!-- [root] provider.aws (close) -->
<g id="node29" class="node">
<title>[root] provider.aws (close)</title>
<ellipse fill="none" stroke="black" cx="1145.5" cy="-450" rx="131.88" ry="18"/>
<text text-anchor="middle" x="1145.5" y="-446.3" font-family="Times,serif" font-size="14.00">[root] provider.aws (close)</text>
</g>
<!-- [root] provider.aws (close)&#45;&gt;[root] aws_nat_gateway.nat_gateway_0 -->
<g id="edge49" class="edge">
<title>[root] provider.aws (close)&#45;&gt;[root] aws_nat_gateway.nat_gateway_0</title>
<path fill="none" stroke="black" d="M1087.67,-433.72C1048.76,-423.45 997.09,-409.8 955.08,-398.7"/>
<polygon fill="black" stroke="black" points="955.74,-395.26 945.18,-396.09 953.96,-402.02 955.74,-395.26"/>
</g>
<!-- [root] provider.aws (close)&#45;&gt;[root] aws_route.private_0 -->
<g id="edge50" class="edge">
<title>[root] provider.aws (close)&#45;&gt;[root] aws_route.private_0</title>
<path fill="none" stroke="black" d="M1220.25,-435.1C1275.18,-424.87 1351.91,-410.56 1428.7,-396.15"/>
<polygon fill="black" stroke="black" points="1429.37,-399.58 1438.55,-394.3 1428.07,-392.7 1429.37,-399.58"/>
</g>
<!-- [root] provider.aws (close)&#45;&gt;[root] aws_route.private_1 -->
<g id="edge51" class="edge">
<title>[root] provider.aws (close)&#45;&gt;[root] aws_route.private_1</title>
<path fill="none" stroke="black" d="M1190.24,-432.94C1217.94,-423 1253.77,-410.14 1283.49,-399.47"/>
<polygon fill="black" stroke="black" points="1284.68,-402.76 1292.91,-396.08 1282.31,-396.17 1284.68,-402.76"/>
</g>
<!-- [root] provider.aws (close)&#45;&gt;[root] aws_route.public -->
<g id="edge52" class="edge">
<title>[root] provider.aws (close)&#45;&gt;[root] aws_route.public</title>
<path fill="none" stroke="black" d="M1013.56,-448.77C823.86,-446.92 463.11,-437.76 147.56,-396"/>
<polygon fill="black" stroke="black" points="147.67,-392.48 137.3,-394.63 146.74,-399.42 147.67,-392.48"/>
</g>
<!-- [root] provider.aws (close)&#45;&gt;[root] aws_route_table_association.private_0 -->
<g id="edge53" class="edge">
<title>[root] provider.aws (close)&#45;&gt;[root] aws_route_table_association.private_0</title>
<path fill="none" stroke="black" d="M1237.18,-437.05C1253.59,-435.17 1270.53,-433.39 1286.5,-432 1579.81,-406.45 1657.01,-420.03 1954.22,-396.07"/>
<polygon fill="black" stroke="black" points="1954.75,-399.54 1964.43,-395.24 1954.18,-392.57 1954.75,-399.54"/>
</g>
<!-- [root] provider.aws (close)&#45;&gt;[root] aws_route_table_association.private_1 -->
<g id="edge54" class="edge">
<title>[root] provider.aws (close)&#45;&gt;[root] aws_route_table_association.private_1</title>
<path fill="none" stroke="black" d="M1239.9,-437.39C1255.46,-435.54 1271.43,-433.68 1286.5,-432 1407.2,-418.51 1543.97,-404.5 1646.21,-394.27"/>
<polygon fill="black" stroke="black" points="1646.7,-397.74 1656.3,-393.26 1646.01,-390.77 1646.7,-397.74"/>
</g>
<!-- [root] provider.aws (close)&#45;&gt;[root] aws_route_table_association.public_0 -->
<g id="edge55" class="edge">
<title>[root] provider.aws (close)&#45;&gt;[root] aws_route_table_association.public_0</title>
<path fill="none" stroke="black" d="M1052.68,-437.17C967.1,-426.25 838.77,-409.89 739.99,-397.3"/>
<polygon fill="black" stroke="black" points="740.29,-393.81 729.92,-396.01 739.4,-400.75 740.29,-393.81"/>
</g>
<!-- [root] provider.aws (close)&#45;&gt;[root] aws_route_table_association.public_1 -->
<g id="edge56" class="edge">
<title>[root] provider.aws (close)&#45;&gt;[root] aws_route_table_association.public_1</title>
<path fill="none" stroke="black" d="M1029.13,-441.5C892.47,-432.4 658.71,-415.89 447.83,-396.11"/>
<polygon fill="black" stroke="black" points="448.09,-392.62 437.81,-395.16 447.43,-399.59 448.09,-392.62"/>
</g>
<!-- [root] root -->
<g id="node30" class="node">
<title>[root] root</title>
<ellipse fill="none" stroke="black" cx="1332.5" cy="-522" rx="58.49" ry="18"/>
<text text-anchor="middle" x="1332.5" y="-518.3" font-family="Times,serif" font-size="14.00">[root] root</text>
</g>
<!-- [root] root&#45;&gt;[root] meta.count&#45;boundary (EachMode fixup) -->
<g id="edge57" class="edge">
<title>[root] root&#45;&gt;[root] meta.count&#45;boundary (EachMode fixup)</title>
<path fill="none" stroke="black" d="M1368.11,-507.67C1395.58,-497.39 1434.03,-482.99 1465.31,-471.29"/>
<polygon fill="black" stroke="black" points="1466.63,-474.53 1474.77,-467.75 1464.17,-467.97 1466.63,-474.53"/>
</g>
<!-- [root] root&#45;&gt;[root] provider.aws (close) -->
<g id="edge58" class="edge">
<title>[root] root&#45;&gt;[root] provider.aws (close)</title>
<path fill="none" stroke="black" d="M1296.89,-507.67C1268.94,-497.21 1229.62,-482.49 1198.06,-470.67"/>
<polygon fill="black" stroke="black" points="1199.12,-467.34 1188.53,-467.11 1196.67,-473.89 1199.12,-467.34"/>
</g>
</g>
</svg>
